# xmcd CD database file
#
# Track frame offsets:
#	150
#	15332
#	33960
#	50362
#	72885
#	89467
#	104442
#	121442
#	138605
#	156510
#	174380
#	194327
#
# Disc length: 2827 seconds
#
# Revision: 0
# Processed by: cddbd v1.5.1PL2 Copyright (c) Steve Scherf et al.
# Submitted via: CDex 1.51
#
DISCID=a10b090c
DTITLE=Ghislaine Lorrain - de toutes les couleurs
DYEAR=1900
DGENRE=Québécois
TTITLE0=qui est qui?
TTITLE1=une panne de couleur
TTITLE2=attends-moi
TTITLE3=la beauté du diable
TTITLE4=goodbye Charlie
TTITLE5=J'aimerais tellement qu'il change
TTITLE6=un mauvais garçon
TTITLE7=la mer et les palmiers
TTITLE8=le coeur en premier
TTITLE9=danger
TTITLE10=reviens-moi Eldorado
TTITLE11=de toutes les couleurs
EXTD=
EXTT0=
EXTT1=
EXTT2=
EXTT3=
EXTT4=
EXTT5=
EXTT6=
EXTT7=
EXTT8=
EXTT9=
EXTT10=
EXTT11=
PLAYORDER=
